{"asset":{"version":"2.0","generator":"THREE.GLTFExporter"},"scenes":[{"nodes":[72],"name":"AuxScene"}],"scene":0,"nodes":[{"name":"layer0","mesh":0},{"name":"row0","mesh":1},{"children":[1]},{"matrix":[1,0,0,0,0,1,0,0,0,0,1,0,0,0,-6.5,1],"children":[0,2]},{"name":"layer1","mesh":2},{"name":"row0","mesh":3},{"children":[5]},{"matrix":[1,0,0,0,0,1,0,0,0,0,1,0,0,0,-19.5,1],"children":[4,6]},{"name":"layer2","mesh":4},{"name":"row0","mesh":5},{"children":[9]},{"matrix":[1,0,0,0,0,1,0,0,0,0,1,0,0,0,-32.5,1],"children":[8,10]},{"matrix":[1,0,0,0,0,1,0,0,0,0,1,0,0,0,-250.5,1],"children":[3,7,11]},{"name":"layer0","mesh":6},{"name":"row0","mesh":7},{"children":[14]},{"matrix":[1,0,0,0,0,1,0,0,0,0,1,0,0,0,-6.5,1],"children":[13,15]},{"name":"layer1","mesh":8},{"name":"row0","mesh":9},{"children":[18]},{"matrix":[1,0,0,0,0,1,0,0,0,0,1,0,0,0,-19.5,1],"children":[17,19]},{"name":"layer2","mesh":10},{"name":"row0","mesh":11},{"children":[22]},{"matrix":[1,0,0,0,0,1,0,0,0,0,1,0,0,0,-32.5,1],"children":[21,23]},{"matrix":[1,0,0,0,0,2.220446049250313e-16,1,0,0,-1,2.220446049250313e-16,0,0,250.5,0,1],"children":[16,20,24]},{"name":"layer0","mesh":12},{"name":"row0","mesh":13},{"children":[27]},{"matrix":[1,0,0,0,0,1,0,0,0,0,1,0,0,0,-6.5,1],"children":[26,28]},{"name":"layer1","mesh":14},{"name":"row0","mesh":15},{"children":[31]},{"matrix":[1,0,0,0,0,1,0,0,0,0,1,0,0,0,-19.5,1],"children":[30,32]},{"name":"layer2","mesh":16},{"name":"row0","mesh":17},{"children":[35]},{"matrix":[1,0,0,0,0,1,0,0,0,0,1,0,0,0,-32.5,1],"children":[34,36]},{"matrix":[0,-1,0,0,0,0,1,0,-1,0,0,0,250.5,0,0,1],"children":[29,33,37]},{"name":"layer0","mesh":18},{"name":"row0","mesh":19},{"children":[40]},{"matrix":[1,0,0,0,0,1,0,0,0,0,1,0,0,0,-6.5,1],"children":[39,41]},{"name":"layer1","mesh":20},{"name":"row0","mesh":21},{"children":[44]},{"matrix":[1,0,0,0,0,1,0,0,0,0,1,0,0,0,-19.5,1],"children":[43,45]},{"name":"layer2","mesh":22},{"name":"row0","mesh":23},{"children":[48]},{"matrix":[1,0,0,0,0,1,0,0,0,0,1,0,0,0,-32.5,1],"children":[47,49]},{"matrix":[-1,-1.232595164407831e-32,1.224646799147353e-16,0,1.224646799147353e-16,-2.220446049250313e-16,1,0,1.232595164407831e-32,1,2.220446049250313e-16,0,0,-250.5,0,1],"children":[42,46,50]},{"name":"layer0","mesh":24},{"name":"row0","mesh":25},{"children":[53]},{"matrix":[1,0,0,0,0,1,0,0,0,0,1,0,0,0,-6.5,1],"children":[52,54]},{"name":"layer1","mesh":26},{"name":"row0","mesh":27},{"children":[57]},{"matrix":[1,0,0,0,0,1,0,0,0,0,1,0,0,0,-19.5,1],"children":[56,58]},{"name":"layer2","mesh":28},{"name":"row0","mesh":29},{"children":[61]},{"matrix":[1,0,0,0,0,1,0,0,0,0,1,0,0,0,-32.5,1],"children":[60,62]},{"matrix":[0,1,0,0,0,0,1,0,1,0,0,0,-250.5,0,0,1],"children":[55,59,63]},{"children":[12,25,38,51,64]},{"name":"Gas","mesh":30},{"matrix":[1,0,0,0,0,1,0,0,0,0,1,0,0,0,2.5,1],"children":[66]},{"name":"Pcb","mesh":31},{"matrix":[1,0,0,0,0,1,0,0,0,0,1,0,0,0,257.5,1],"children":[68]},{"children":[67,69]},{"children":[65,70]},{"children":[71]}],"bufferViews":[{"buffer":0,"byteOffset":0,"byteLength":432,"target":34962,"byteStride":12},{"buffer":0,"byteOffset":432,"byteLength":432,"target":34962,"byteStride":12},{"buffer":0,"byteOffset":864,"byteLength":432,"target":34962,"byteStride":12},{"buffer":0,"byteOffset":1296,"byteLength":432,"target":34962,"byteStride":12},{"buffer":0,"byteOffset":1728,"byteLength":432,"target":34962,"byteStride":12},{"buffer":0,"byteOffset":2160,"byteLength":432,"target":34962,"byteStride":12},{"buffer":0,"byteOffset":2592,"byteLength":432,"target":34962,"byteStride":12},{"buffer":0,"byteOffset":3024,"byteLength":432,"target":34962,"byteStride":12},{"buffer":0,"byteOffset":3456,"byteLength":432,"target":34962,"byteStride":12},{"buffer":0,"byteOffset":3888,"byteLength":432,"target":34962,"byteStride":12},{"buffer":0,"byteOffset":4320,"byteLength":432,"target":34962,"byteStride":12},{"buffer":0,"byteOffset":4752,"byteLength":432,"target":34962,"byteStride":12},{"buffer":0,"byteOffset":5184,"byteLength":432,"target":34962,"byteStride":12},{"buffer":0,"byteOffset":5616,"byteLength":432,"target":34962,"byteStride":12},{"buffer":0,"byteOffset":6048,"byteLength":432,"target":34962,"byteStride":12},{"buffer":0,"byteOffset":6480,"byteLength":432,"target":34962,"byteStride":12},{"buffer":0,"byteOffset":6912,"byteLength":432,"target":34962,"byteStride":12},{"buffer":0,"byteOffset":7344,"byteLength":432,"target":34962,"byteStride":12},{"buffer":0,"byteOffset":7776,"byteLength":432,"target":34962,"byteStride":12},{"buffer":0,"byteOffset":8208,"byteLength":432,"target":34962,"byteStride":12},{"buffer":0,"byteOffset":8640,"byteLength":432,"target":34962,"byteStride":12},{"buffer":0,"byteOffset":9072,"byteLength":432,"target":34962,"byteStride":12},{"buffer":0,"byteOffset":9504,"byteLength":432,"target":34962,"byteStride":12},{"buffer":0,"byteOffset":9936,"byteLength":432,"target":34962,"byteStride":12},{"buffer":0,"byteOffset":10368,"byteLength":432,"target":34962,"byteStride":12},{"buffer":0,"byteOffset":10800,"byteLength":432,"target":34962,"byteStride":12},{"buffer":0,"byteOffset":11232,"byteLength":432,"target":34962,"byteStride":12},{"buffer":0,"byteOffset":11664,"byteLength":432,"target":34962,"byteStride":12},{"buffer":0,"byteOffset":12096,"byteLength":432,"target":34962,"byteStride":12},{"buffer":0,"byteOffset":12528,"byteLength":432,"target":34962,"byteStride":12},{"buffer":0,"byteOffset":12960,"byteLength":432,"target":34962,"byteStride":12},{"buffer":0,"byteOffset":13392,"byteLength":432,"target":34962,"byteStride":12},{"buffer":0,"byteOffset":13824,"byteLength":432,"target":34962,"byteStride":12},{"buffer":0,"byteOffset":14256,"byteLength":432,"target":34962,"byteStride":12},{"buffer":0,"byteOffset":14688,"byteLength":432,"target":34962,"byteStride":12},{"buffer":0,"byteOffset":15120,"byteLength":432,"target":34962,"byteStride":12},{"buffer":0,"byteOffset":15552,"byteLength":432,"target":34962,"byteStride":12},{"buffer":0,"byteOffset":15984,"byteLength":432,"target":34962,"byteStride":12},{"buffer":0,"byteOffset":16416,"byteLength":432,"target":34962,"byteStride":12},{"buffer":0,"byteOffset":16848,"byteLength":432,"target":34962,"byteStride":12},{"buffer":0,"byteOffset":17280,"byteLength":432,"target":34962,"byteStride":12},{"buffer":0,"byteOffset":17712,"byteLength":432,"target":34962,"byteStride":12},{"buffer":0,"byteOffset":18144,"byteLength":432,"target":34962,"byteStride":12},{"buffer":0,"byteOffset":18576,"byteLength":432,"target":34962,"byteStride":12},{"buffer":0,"byteOffset":19008,"byteLength":432,"target":34962,"byteStride":12},{"buffer":0,"byteOffset":19440,"byteLength":432,"target":34962,"byteStride":12},{"buffer":0,"byteOffset":19872,"byteLength":432,"target":34962,"byteStride":12},{"buffer":0,"byteOffset":20304,"byteLength":432,"target":34962,"byteStride":12},{"buffer":0,"byteOffset":20736,"byteLength":432,"target":34962,"byteStride":12},{"buffer":0,"byteOffset":21168,"byteLength":432,"target":34962,"byteStride":12},{"buffer":0,"byteOffset":21600,"byteLength":432,"target":34962,"byteStride":12},{"buffer":0,"byteOffset":22032,"byteLength":432,"target":34962,"byteStride":12},{"buffer":0,"byteOffset":22464,"byteLength":432,"target":34962,"byteStride":12},{"buffer":0,"byteOffset":22896,"byteLength":432,"target":34962,"byteStride":12},{"buffer":0,"byteOffset":23328,"byteLength":432,"target":34962,"byteStride":12},{"buffer":0,"byteOffset":23760,"byteLength":432,"target":34962,"byteStride":12},{"buffer":0,"byteOffset":24192,"byteLength":432,"target":34962,"byteStride":12},{"buffer":0,"byteOffset":24624,"byteLength":432,"target":34962,"byteStride":12},{"buffer":0,"byteOffset":25056,"byteLength":432,"target":34962,"byteStride":12},{"buffer":0,"byteOffset":25488,"byteLength":432,"target":34962,"byteStride":12},{"buffer":0,"byteOffset":25920,"byteLength":432,"target":34962,"byteStride":12},{"buffer":0,"byteOffset":26352,"byteLength":432,"target":34962,"byteStride":12},{"buffer":0,"byteOffset":26784,"byteLength":432,"target":34962,"byteStride":12},{"buffer":0,"byteOffset":27216,"byteLength":432,"target":34962,"byteStride":12}],"buffers":[{"byteLength":27648,"uri":"data:application/octet-stream;base64,"}],"accessors":[{"bufferView":0,"componentType":5126,"count":36,"max":[250.5,250.5,6],"min":[-250.5,-250.5,-6],"type":"VEC3"},{"bufferView":1,"componentType":5126,"count":36,"max":[1,1,1],"min":[-1,-1,-1],"type":"VEC3"},{"bufferView":2,"componentType":5126,"count":36,"max":[250.5,250.5,6],"min":[-250.5,-250.5,-6],"type":"VEC3"},{"bufferView":3,"componentType":5126,"count":36,"max":[1,1,1],"min":[-1,-1,-1],"type":"VEC3"},{"bufferView":4,"componentType":5126,"count":36,"max":[250.5,250.5,6],"min":[-250.5,-250.5,-6],"type":"VEC3"},{"bufferView":5,"componentType":5126,"count":36,"max":[1,1,1],"min":[-1,-1,-1],"type":"VEC3"},{"bufferView":6,"componentType":5126,"count":36,"max":[250.5,250.5,6],"min":[-250.5,-250.5,-6],"type":"VEC3"},{"bufferView":7,"componentType":5126,"count":36,"max":[1,1,1],"min":[-1,-1,-1],"type":"VEC3"},{"bufferView":8,"componentType":5126,"count":36,"max":[250.5,250.5,6],"min":[-250.5,-250.5,-6],"type":"VEC3"},{"bufferView":9,"componentType":5126,"count":36,"max":[1,1,1],"min":[-1,-1,-1],"type":"VEC3"},{"bufferView":10,"componentType":5126,"count":36,"max":[250.5,250.5,6],"min":[-250.5,-250.5,-6],"type":"VEC3"},{"bufferView":11,"componentType":5126,"count":36,"max":[1,1,1],"min":[-1,-1,-1],"type":"VEC3"},{"bufferView":12,"componentType":5126,"count":36,"max":[250.5,250.5,6],"min":[-250.5,-250.5,-6],"type":"VEC3"},{"bufferView":13,"componentType":5126,"count":36,"max":[1,1,1],"min":[-1,-1,-1],"type":"VEC3"},{"bufferView":14,"componentType":5126,"count":36,"max":[250.5,250.5,6],"min":[-250.5,-250.5,-6],"type":"VEC3"},{"bufferView":15,"componentType":5126,"count":36,"max":[1,1,1],"min":[-1,-1,-1],"type":"VEC3"},{"bufferView":16,"componentType":5126,"count":36,"max":[250.5,250.5,6],"min":[-250.5,-250.5,-6],"type":"VEC3"},{"bufferView":17,"componentType":5126,"count":36,"max":[1,1,1],"min":[-1,-1,-1],"type":"VEC3"},{"bufferView":18,"componentType":5126,"count":36,"max":[250.5,250.5,6],"min":[-250.5,-250.5,-6],"type":"VEC3"},{"bufferView":19,"componentType":5126,"count":36,"max":[1,1,1],"min":[-1,-1,-1],"type":"VEC3"},{"bufferView":20,"componentType":5126,"count":36,"max":[250.5,250.5,6],"min":[-250.5,-250.5,-6],"type":"VEC3"},{"bufferView":21,"componentType":5126,"count":36,"max":[1,1,1],"min":[-1,-1,-1],"type":"VEC3"},{"bufferView":22,"componentType":5126,"count":36,"max":[250.5,250.5,6],"min":[-250.5,-250.5,-6],"type":"VEC3"},{"bufferView":23,"componentType":5126,"count":36,"max":[1,1,1],"min":[-1,-1,-1],"type":"VEC3"},{"bufferView":24,"componentType":5126,"count":36,"max":[250.5,250.5,6],"min":[-250.5,-250.5,-6],"type":"VEC3"},{"bufferView":25,"componentType":5126,"count":36,"max":[1,1,1],"min":[-1,-1,-1],"type":"VEC3"},{"bufferView":26,"componentType":5126,"count":36,"max":[250.5,250.5,6],"min":[-250.5,-250.5,-6],"type":"VEC3"},{"bufferView":27,"componentType":5126,"count":36,"max":[1,1,1],"min":[-1,-1,-1],"type":"VEC3"},{"bufferView":28,"componentType":5126,"count":36,"max":[250.5,250.5,6],"min":[-250.5,-250.5,-6],"type":"VEC3"},{"bufferView":29,"componentType":5126,"count":36,"max":[1,1,1],"min":[-1,-1,-1],"type":"VEC3"},{"bufferView":30,"componentType":5126,"count":36,"max":[250.5,250.5,6],"min":[-250.5,-250.5,-6],"type":"VEC3"},{"bufferView":31,"componentType":5126,"count":36,"max":[1,1,1],"min":[-1,-1,-1],"type":"VEC3"},{"bufferView":32,"componentType":5126,"count":36,"max":[250.5,250.5,6],"min":[-250.5,-250.5,-6],"type":"VEC3"},{"bufferView":33,"componentType":5126,"count":36,"max":[1,1,1],"min":[-1,-1,-1],"type":"VEC3"},{"bufferView":34,"componentType":5126,"count":36,"max":[250.5,250.5,6],"min":[-250.5,-250.5,-6],"type":"VEC3"},{"bufferView":35,"componentType":5126,"count":36,"max":[1,1,1],"min":[-1,-1,-1],"type":"VEC3"},{"bufferView":36,"componentType":5126,"count":36,"max":[250.5,250.5,6],"min":[-250.5,-250.5,-6],"type":"VEC3"},{"bufferView":37,"componentType":5126,"count":36,"max":[1,1,1],"min":[-1,-1,-1],"type":"VEC3"},{"bufferView":38,"componentType":5126,"count":36,"max":[250.5,250.5,6],"min":[-250.5,-250.5,-6],"type":"VEC3"},{"bufferView":39,"componentType":5126,"count":36,"max":[1,1,1],"min":[-1,-1,-1],"type":"VEC3"},{"bufferView":40,"componentType":5126,"count":36,"max":[250.5,250.5,6],"min":[-250.5,-250.5,-6],"type":"VEC3"},{"bufferView":41,"componentType":5126,"count":36,"max":[1,1,1],"min":[-1,-1,-1],"type":"VEC3"},{"bufferView":42,"componentType":5126,"count":36,"max":[250.5,250.5,6],"min":[-250.5,-250.5,-6],"type":"VEC3"},{"bufferView":43,"componentType":5126,"count":36,"max":[1,1,1],"min":[-1,-1,-1],"type":"VEC3"},{"bufferView":44,"componentType":5126,"count":36,"max":[250.5,250.5,6],"min":[-250.5,-250.5,-6],"type":"VEC3"},{"bufferView":45,"componentType":5126,"count":36,"max":[1,1,1],"min":[-1,-1,-1],"type":"VEC3"},{"bufferView":46,"componentType":5126,"count":36,"max":[250.5,250.5,6],"min":[-250.5,-250.5,-6],"type":"VEC3"},{"bufferView":47,"componentType":5126,"count":36,"max":[1,1,1],"min":[-1,-1,-1],"type":"VEC3"},{"bufferView":48,"componentType":5126,"count":36,"max":[250.5,250.5,6],"min":[-250.5,-250.5,-6],"type":"VEC3"},{"bufferView":49,"componentType":5126,"count":36,"max":[1,1,1],"min":[-1,-1,-1],"type":"VEC3"},{"bufferView":50,"componentType":5126,"count":36,"max":[250.5,250.5,6],"min":[-250.5,-250.5,-6],"type":"VEC3"},{"bufferView":51,"componentType":5126,"count":36,"max":[1,1,1],"min":[-1,-1,-1],"type":"VEC3"},{"bufferView":52,"componentType":5126,"count":36,"max":[250.5,250.5,6],"min":[-250.5,-250.5,-6],"type":"VEC3"},{"bufferView":53,"componentType":5126,"count":36,"max":[1,1,1],"min":[-1,-1,-1],"type":"VEC3"},{"bufferView":54,"componentType":5126,"count":36,"max":[250.5,250.5,6],"min":[-250.5,-250.5,-6],"type":"VEC3"},{"bufferView":55,"componentType":5126,"count":36,"max":[1,1,1],"min":[-1,-1,-1],"type":"VEC3"},{"bufferView":56,"componentType":5126,"count":36,"max":[250.5,250.5,6],"min":[-250.5,-250.5,-6],"type":"VEC3"},{"bufferView":57,"componentType":5126,"count":36,"max":[1,1,1],"min":[-1,-1,-1],"type":"VEC3"},{"bufferView":58,"componentType":5126,"count":36,"max":[250.5,250.5,6],"min":[-250.5,-250.5,-6],"type":"VEC3"},{"bufferView":59,"componentType":5126,"count":36,"max":[1,1,1],"min":[-1,-1,-1],"type":"VEC3"},{"bufferView":60,"componentType":5126,"count":36,"max":[250,250,252.5],"min":[-250,-250,-252.5],"type":"VEC3"},{"bufferView":61,"componentType":5126,"count":36,"max":[1,1,1],"min":[-1,-1,-1],"type":"VEC3"},{"bufferView":62,"componentType":5126,"count":36,"max":[255,255,2.5],"min":[-255,-255,-2.5],"type":"VEC3"},{"bufferView":63,"componentType":5126,"count":36,"max":[1,1,1],"min":[-1,-1,-1],"type":"VEC3"}],"materials":[{"pbrMetallicRoughness":{"baseColorFactor":[0.803921568627451,0.803921568627451,0.803921568627451,0.4],"metallicFactor":0.5,"roughnessFactor":0.5},"alphaMode":"BLEND"},{"pbrMetallicRoughness":{"baseColorFactor":[0.803921568627451,0.803921568627451,0.803921568627451,0.4],"metallicFactor":0.5,"roughnessFactor":0.5},"alphaMode":"BLEND"},{"pbrMetallicRoughness":{"baseColorFactor":[0.803921568627451,0.803921568627451,0.803921568627451,0.4],"metallicFactor":0.5,"roughnessFactor":0.5},"alphaMode":"BLEND"},{"pbrMetallicRoughness":{"baseColorFactor":[0.803921568627451,0.803921568627451,0.803921568627451,0.4],"metallicFactor":0.5,"roughnessFactor":0.5},"alphaMode":"BLEND"},{"pbrMetallicRoughness":{"baseColorFactor":[0.803921568627451,0.803921568627451,0.803921568627451,0.4],"metallicFactor":0.5,"roughnessFactor":0.5},"alphaMode":"BLEND"},{"pbrMetallicRoughness":{"baseColorFactor":[0.803921568627451,0.803921568627451,0.803921568627451,0.4],"metallicFactor":0.5,"roughnessFactor":0.5},"alphaMode":"BLEND"},{"pbrMetallicRoughness":{"baseColorFactor":[0.803921568627451,0.803921568627451,0.803921568627451,0.4],"metallicFactor":0.5,"roughnessFactor":0.5},"alphaMode":"BLEND"},{"pbrMetallicRoughness":{"baseColorFactor":[0.803921568627451,0.803921568627451,0.803921568627451,0.4],"metallicFactor":0.5,"roughnessFactor":0.5},"alphaMode":"BLEND"},{"pbrMetallicRoughness":{"baseColorFactor":[0.803921568627451,0.803921568627451,0.803921568627451,0.4],"metallicFactor":0.5,"roughnessFactor":0.5},"alphaMode":"BLEND"},{"pbrMetallicRoughness":{"baseColorFactor":[0.803921568627451,0.803921568627451,0.803921568627451,0.4],"metallicFactor":0.5,"roughnessFactor":0.5},"alphaMode":"BLEND"},{"pbrMetallicRoughness":{"baseColorFactor":[0.803921568627451,0.803921568627451,0.803921568627451,0.4],"metallicFactor":0.5,"roughnessFactor":0.5},"alphaMode":"BLEND"},{"pbrMetallicRoughness":{"baseColorFactor":[0.803921568627451,0.803921568627451,0.803921568627451,0.4],"metallicFactor":0.5,"roughnessFactor":0.5},"alphaMode":"BLEND"},{"pbrMetallicRoughness":{"baseColorFactor":[0.803921568627451,0.803921568627451,0.803921568627451,0.4],"metallicFactor":0.5,"roughnessFactor":0.5},"alphaMode":"BLEND"},{"pbrMetallicRoughness":{"baseColorFactor":[0.803921568627451,0.803921568627451,0.803921568627451,0.4],"metallicFactor":0.5,"roughnessFactor":0.5},"alphaMode":"BLEND"},{"pbrMetallicRoughness":{"baseColorFactor":[0.803921568627451,0.803921568627451,0.803921568627451,0.4],"metallicFactor":0.5,"roughnessFactor":0.5},"alphaMode":"BLEND"},{"pbrMetallicRoughness":{"baseColorFactor":[0.803921568627451,0.803921568627451,0.803921568627451,0.4],"metallicFactor":0.5,"roughnessFactor":0.5},"alphaMode":"BLEND"},{"pbrMetallicRoughness":{"baseColorFactor":[0.803921568627451,0.803921568627451,0.803921568627451,0.4],"metallicFactor":0.5,"roughnessFactor":0.5},"alphaMode":"BLEND"},{"pbrMetallicRoughness":{"baseColorFactor":[0.803921568627451,0.803921568627451,0.803921568627451,0.4],"metallicFactor":0.5,"roughnessFactor":0.5},"alphaMode":"BLEND"},{"pbrMetallicRoughness":{"baseColorFactor":[0.803921568627451,0.803921568627451,0.803921568627451,0.4],"metallicFactor":0.5,"roughnessFactor":0.5},"alphaMode":"BLEND"},{"pbrMetallicRoughness":{"baseColorFactor":[0.803921568627451,0.803921568627451,0.803921568627451,0.4],"metallicFactor":0.5,"roughnessFactor":0.5},"alphaMode":"BLEND"},{"pbrMetallicRoughness":{"baseColorFactor":[0.803921568627451,0.803921568627451,0.803921568627451,0.4],"metallicFactor":0.5,"roughnessFactor":0.5},"alphaMode":"BLEND"},{"pbrMetallicRoughness":{"baseColorFactor":[0.803921568627451,0.803921568627451,0.803921568627451,0.4],"metallicFactor":0.5,"roughnessFactor":0.5},"alphaMode":"BLEND"},{"pbrMetallicRoughness":{"baseColorFactor":[0.803921568627451,0.803921568627451,0.803921568627451,0.4],"metallicFactor":0.5,"roughnessFactor":0.5},"alphaMode":"BLEND"},{"pbrMetallicRoughness":{"baseColorFactor":[0.803921568627451,0.803921568627451,0.803921568627451,0.4],"metallicFactor":0.5,"roughnessFactor":0.5},"alphaMode":"BLEND"},{"pbrMetallicRoughness":{"baseColorFactor":[0.803921568627451,0.803921568627451,0.803921568627451,0.4],"metallicFactor":0.5,"roughnessFactor":0.5},"alphaMode":"BLEND"},{"pbrMetallicRoughness":{"baseColorFactor":[0.803921568627451,0.803921568627451,0.803921568627451,0.4],"metallicFactor":0.5,"roughnessFactor":0.5},"alphaMode":"BLEND"},{"pbrMetallicRoughness":{"baseColorFactor":[0.803921568627451,0.803921568627451,0.803921568627451,0.4],"metallicFactor":0.5,"roughnessFactor":0.5},"alphaMode":"BLEND"},{"pbrMetallicRoughness":{"baseColorFactor":[0.803921568627451,0.803921568627451,0.803921568627451,0.4],"metallicFactor":0.5,"roughnessFactor":0.5},"alphaMode":"BLEND"},{"pbrMetallicRoughness":{"baseColorFactor":[0.803921568627451,0.803921568627451,0.803921568627451,0.4],"metallicFactor":0.5,"roughnessFactor":0.5},"alphaMode":"BLEND"},{"pbrMetallicRoughness":{"baseColorFactor":[0.803921568627451,0.803921568627451,0.803921568627451,0.4],"metallicFactor":0.5,"roughnessFactor":0.5},"alphaMode":"BLEND"},{"pbrMetallicRoughness":{"baseColorFactor":[0.803921568627451,0.803921568627451,0.803921568627451,0.4],"metallicFactor":0.5,"roughnessFactor":0.5},"alphaMode":"BLEND"},{"pbrMetallicRoughness":{"baseColorFactor":[1,0.803921568627451,0.803921568627451,0.41],"metallicFactor":0.5,"roughnessFactor":0.5},"alphaMode":"BLEND"}],"meshes":[{"primitives":[{"mode":4,"attributes":{"POSITION":0,"NORMAL":1},"material":0}]},{"primitives":[{"mode":4,"attributes":{"POSITION":2,"NORMAL":3},"material":1}]},{"primitives":[{"mode":4,"attributes":{"POSITION":4,"NORMAL":5},"material":2}]},{"primitives":[{"mode":4,"attributes":{"POSITION":6,"NORMAL":7},"material":3}]},{"primitives":[{"mode":4,"attributes":{"POSITION":8,"NORMAL":9},"material":4}]},{"primitives":[{"mode":4,"attributes":{"POSITION":10,"NORMAL":11},"material":5}]},{"primitives":[{"mode":4,"attributes":{"POSITION":12,"NORMAL":13},"material":6}]},{"primitives":[{"mode":4,"attributes":{"POSITION":14,"NORMAL":15},"material":7}]},{"primitives":[{"mode":4,"attributes":{"POSITION":16,"NORMAL":17},"material":8}]},{"primitives":[{"mode":4,"attributes":{"POSITION":18,"NORMAL":19},"material":9}]},{"primitives":[{"mode":4,"attributes":{"POSITION":20,"NORMAL":21},"material":10}]},{"primitives":[{"mode":4,"attributes":{"POSITION":22,"NORMAL":23},"material":11}]},{"primitives":[{"mode":4,"attributes":{"POSITION":24,"NORMAL":25},"material":12}]},{"primitives":[{"mode":4,"attributes":{"POSITION":26,"NORMAL":27},"material":13}]},{"primitives":[{"mode":4,"attributes":{"POSITION":28,"NORMAL":29},"material":14}]},{"primitives":[{"mode":4,"attributes":{"POSITION":30,"NORMAL":31},"material":15}]},{"primitives":[{"mode":4,"attributes":{"POSITION":32,"NORMAL":33},"material":16}]},{"primitives":[{"mode":4,"attributes":{"POSITION":34,"NORMAL":35},"material":17}]},{"primitives":[{"mode":4,"attributes":{"POSITION":36,"NORMAL":37},"material":18}]},{"primitives":[{"mode":4,"attributes":{"POSITION":38,"NORMAL":39},"material":19}]},{"primitives":[{"mode":4,"attributes":{"POSITION":40,"NORMAL":41},"material":20}]},{"primitives":[{"mode":4,"attributes":{"POSITION":42,"NORMAL":43},"material":21}]},{"primitives":[{"mode":4,"attributes":{"POSITION":44,"NORMAL":45},"material":22}]},{"primitives":[{"mode":4,"attributes":{"POSITION":46,"NORMAL":47},"material":23}]},{"primitives":[{"mode":4,"attributes":{"POSITION":48,"NORMAL":49},"material":24}]},{"primitives":[{"mode":4,"attributes":{"POSITION":50,"NORMAL":51},"material":25}]},{"primitives":[{"mode":4,"attributes":{"POSITION":52,"NORMAL":53},"material":26}]},{"primitives":[{"mode":4,"attributes":{"POSITION":54,"NORMAL":55},"material":27}]},{"primitives":[{"mode":4,"attributes":{"POSITION":56,"NORMAL":57},"material":28}]},{"primitives":[{"mode":4,"attributes":{"POSITION":58,"NORMAL":59},"material":29}]},{"primitives":[{"mode":4,"attributes":{"POSITION":60,"NORMAL":61},"material":30}]},{"primitives":[{"mode":4,"attributes":{"POSITION":62,"NORMAL":63},"material":31}]}]}